<svg width="96" height="22" viewBox="0 0 96 22" xmlns="http://www.w3.org/2000/svg" xmlns:xlink="http://www.w3.org/1999/xlink"><title>Group 4</title><defs><path id="a" d="M0 0h95.23v21H0z"/></defs><g transform="translate(0 .5)" fill="none" fill-rule="evenodd"><mask id="b" fill="#fff"><use xlink:href="#a"/></mask><path d="M37.799 5.725h4.2v-3.72h-4.2v3.72zM4.762 20.572h4.387l4.762-13.697H9.71l-2.674 8.8h-.054l-2.675-8.8H0l4.762 13.697zM20.17 9.47c1.471 0 2.488 1.097 2.649 2.702h-5.591c.321-1.632 1.203-2.702 2.942-2.702zm.214 8.48c-1.845 0-2.969-1.204-3.183-3.05h9.871c.027-2.943-.749-5.296-2.381-6.768-1.15-1.07-2.675-1.658-4.601-1.658-4.12 0-6.982 3.13-6.982 7.223 0 4.12 2.728 7.276 7.25 7.276 1.712 0 3.076-.455 4.199-1.23 1.204-.83 2.061-2.034 2.301-3.238h-4.013c-.401.91-1.23 1.446-2.461 1.446zm7.678 2.622h4.173v-6.286c0-2.863 1.712-4.121 4.334-3.773h.08V6.902c-.214-.08-.455-.107-.856-.107-1.631 0-2.728.749-3.665 2.354h-.081V6.875h-3.985v13.697zm9.737 0h4.2V6.876h-4.2v13.696zm5.351 0h11.718v-3.29h-6.635V17.2l6.34-7.116v-3.21H43.15v3.29h6.421v.08l-6.421 7.17v3.157zm19.128-2.65c-1.981 0-3.024-1.657-3.024-4.172 0-2.542 1.043-4.173 3.024-4.173 1.979 0 3.076 1.63 3.076 4.173 0 2.515-1.097 4.173-3.076 4.173zM62.304 6.5c-4.36 0-7.276 3.13-7.276 7.25 0 4.093 2.916 7.25 7.276 7.25 4.361 0 7.277-3.157 7.277-7.25 0-4.12-2.916-7.25-7.277-7.25zm8.186 14.072h4.174v-7.624c0-1.74 1.016-2.97 2.514-2.97 1.445 0 2.194 1.016 2.194 2.462v8.132h4.172v-8.935c0-3.023-1.818-5.163-4.761-5.163-1.872 0-3.184.803-4.173 2.273h-.08V6.875h-4.04v13.697z" fill="#000" mask="url(#b)"/><path fill="#E00" mask="url(#b)" d="M83.475 6.875h2.137l2.137 4.583L93.092 0h2.138l-6.412 13.75h-2.137z"/></g></svg>